0
SECTION
2
HEADER
9
$ACADVER
1
AC1006
0
ENDSEC
0
SECTION
2
TABLES
0
TABLE
2
LAYER
70
0
0
LAYER
2
contour_lines
70
0
62
1
6
CONTINUOUS
0
LAYER
2
contour_lines_points
70
0
62
5
6
CONTINUOUS
0
ENDTAB
0
ENDSEC
0
SECTION
2
ENTITIES
0
LINE
8
contour_lines
62
1
10
-714999.984
20
-985749.099
30
279.000
11
-715006.052
21
-985748.183
31
279.000
0
LINE
8
contour_lines
62
1
10
-715006.052
20
-985748.183
30
279.000
11
-715012.439
21
-985747.125
31
279.000
0
LINE
8
contour_lines
62
1
10
-715012.439
20
-985747.125
30
279.000
11
-715018.500
21
-985745.997
31
279.000
0
LINE
8
contour_lines
62
1
10
-715018.500
20
-985745.997
30
279.000
11
-715024.579
21
-985744.713
31
279.000
0
LINE
8
contour_lines
62
1
10
-715024.579
20
-985744.713
30
279.000
11
-715030.319
21
-985743.879
31
279.000
0
LINE
8
contour_lines
62
1
10
-715030.319
20
-985743.879
30
279.000
11
-715034.140
21
-985739.334
31
279.000
0
LINE
8
contour_lines
62
1
10
-715034.140
20
-985739.334
30
279.000
11
-715039.241
21
-985736.726
31
279.000
0
LINE
8
contour_lines
62
1
10
-715039.241
20
-985736.726
30
279.000
11
-715044.223
21
-985734.207
31
279.000
0
LINE
8
contour_lines
62
1
10
-715044.223
20
-985734.207
30
279.000
11
-715049.210
21
-985732.736
31
279.000
0
LINE
8
contour_lines
62
1
10
-715049.210
20
-985732.736
30
279.000
11
-715054.019
21
-985730.300
31
279.000
0
LINE
8
contour_lines
62
1
10
-715054.019
20
-985730.300
30
279.000
11
-715058.116
21
-985727.263
31
279.000
0
LINE
8
contour_lines
62
1
10
-715058.116
20
-985727.263
30
279.000
11
-715061.912
21
-985724.326
31
279.000
0
LINE
8
contour_lines
62
1
10
-715061.912
20
-985724.326
30
279.000
11
-715066.302
21
-985722.351
31
279.000
0
LINE
8
contour_lines
62
1
10
-715066.302
20
-985722.351
30
279.000
11
-715070.320
21
-985720.721
31
279.000
0
LINE
8
contour_lines
62
1
10
-715070.320
20
-985720.721
30
279.000
11
-715074.525
21
-985719.152
31
279.000
0
LINE
8
contour_lines
62
1
10
-715074.525
20
-985719.152
30
279.000
11
-715078.352
21
-985717.544
31
279.000
0
LINE
8
contour_lines
62
1
10
-715078.352
20
-985717.544
30
279.000
11
-715082.675
21
-985717.269
31
279.000
0
LINE
8
contour_lines
62
1
10
-715082.675
20
-985717.269
30
279.000
11
-715086.963
21
-985717.090
31
279.000
0
LINE
8
contour_lines
62
1
10
-715086.963
20
-985717.090
30
279.000
11
-715091.730
21
-985716.666
31
279.000
0
LINE
8
contour_lines
62
1
10
-715091.730
20
-985716.666
30
279.000
11
-715096.214
21
-985715.857
31
279.000
0
LINE
8
contour_lines
62
1
10
-715096.214
20
-985715.857
30
279.000
11
-715100.887
21
-985715.115
31
279.000
0
LINE
8
contour_lines
62
1
10
-715100.887
20
-985715.115
30
279.000
11
-715105.522
21
-985714.961
31
279.000
0
LINE
8
contour_lines
62
1
10
-715105.522
20
-985714.961
30
279.000
11
-715110.619
21
-985714.922
31
279.000
0
LINE
8
contour_lines
62
1
10
-715110.619
20
-985714.922
30
279.000
11
-715115.422
21
-985714.728
31
279.000
0
LINE
8
contour_lines
62
1
10
-715115.422
20
-985714.728
30
279.000
11
-715120.308
21
-985713.355
31
279.000
0
LINE
8
contour_lines
62
1
10
-715120.308
20
-985713.355
30
279.000
11
-715124.721
21
-985711.059
31
279.000
0
LINE
8
contour_lines
62
1
10
-715124.721
20
-985711.059
30
279.000
11
-715128.962
21
-985707.797
31
279.000
0
LINE
8
contour_lines
62
1
10
-715128.962
20
-985707.797
30
279.000
11
-715133.000
21
-985705.011
31
279.000
0
LINE
8
contour_lines
62
1
10
-715133.000
20
-985705.011
30
279.000
11
-715137.127
21
-985702.184
31
279.000
0
LINE
8
contour_lines
62
1
10
-715137.127
20
-985702.184
30
279.000
11
-715140.952
21
-985699.779
31
279.000
0
LINE
8
contour_lines
62
1
10
-715140.952
20
-985699.779
30
279.000
11
-715145.051
21
-985697.444
31
279.000
0
LINE
8
contour_lines
62
1
10
-715145.051
20
-985697.444
30
279.000
11
-715148.744
21
-985695.010
31
279.000
0
LINE
8
contour_lines
62
1
10
-715148.744
20
-985695.010
30
279.000
11
-715152.162
21
-985692.367
31
279.000
0
LINE
8
contour_lines
62
1
10
-715152.162
20
-985692.367
30
279.000
11
-715155.295
21
-985689.617
31
279.000
0
LINE
8
contour_lines
62
1
10
-715155.295
20
-985689.617
30
279.000
11
-715158.268
21
-985686.896
31
279.000
0
LINE
8
contour_lines
62
1
10
-715158.268
20
-985686.896
30
279.000
11
-715161.271
21
-985684.401
31
279.000
0
LINE
8
contour_lines
62
1
10
-715161.271
20
-985684.401
30
279.000
11
-715164.388
21
-985682.108
31
279.000
0
LINE
8
contour_lines
62
1
10
-715164.388
20
-985682.108
30
279.000
11
-715167.301
21
-985679.226
31
279.000
0
LINE
8
contour_lines
62
1
10
-715167.301
20
-985679.226
30
279.000
11
-715169.329
21
-985676.030
31
279.000
0
LINE
8
contour_lines
62
1
10
-715169.329
20
-985676.030
30
279.000
11
-715171.713
21
-985672.994
31
279.000
0
LINE
8
contour_lines
62
1
10
-715171.713
20
-985672.994
30
279.000
11
-715173.742
21
-985669.970
31
279.000
0
LINE
8
contour_lines
62
1
10
-715173.742
20
-985669.970
30
279.000
11
-715175.021
21
-985666.239
31
279.000
0
LINE
8
contour_lines
62
1
10
-715175.021
20
-985666.239
30
279.000
11
-715175.799
21
-985662.512
31
279.000
0
LINE
8
contour_lines
62
1
10
-715175.799
20
-985662.512
30
279.000
11
-715176.718
21
-985658.422
31
279.000
0
LINE
8
contour_lines
62
1
10
-715176.718
20
-985658.422
30
279.000
11
-715177.281
21
-985654.592
31
279.000
0
LINE
8
contour_lines
62
1
10
-715177.281
20
-985654.592
30
279.000
11
-715177.595
21
-985650.506
31
279.000
0
LINE
8
contour_lines
62
1
10
-715177.595
20
-985650.506
30
279.000
11
-715177.454
21
-985646.570
31
279.000
0
LINE
8
contour_lines
62
1
10
-715177.454
20
-985646.570
30
279.000
11
-715174.608
21
-985643.152
31
279.000
0
LINE
8
contour_lines
62
1
10
-715174.608
20
-985643.152
30
279.000
11
-715171.028
21
-985640.583
31
279.000
0
LINE
8
contour_lines
62
1
10
-715171.028
20
-985640.583
30
279.000
11
-715166.586
21
-985638.781
31
279.000
0
LINE
8
contour_lines
62
1
10
-715166.586
20
-985638.781
30
279.000
11
-715162.117
21
-985637.581
31
279.000
0
LINE
8
contour_lines
62
1
10
-715162.117
20
-985637.581
30
279.000
11
-715157.343
21
-985636.173
31
279.000
0
LINE
8
contour_lines
62
1
10
-715157.343
20
-985636.173
30
279.000
11
-715152.764
21
-985634.496
31
279.000
0
LINE
8
contour_lines
62
1
10
-715152.764
20
-985634.496
30
279.000
11
-715148.684
21
-985631.149
31
279.000
0
LINE
8
contour_lines
62
1
10
-715148.684
20
-985631.149
30
279.000
11
-715146.108
21
-985626.737
31
279.000
0
LINE
8
contour_lines
62
1
10
-715146.108
20
-985626.737
30
279.000
11
-715145.271
21
-985621.494
31
279.000
0
LINE
8
contour_lines
62
1
10
-715145.271
20
-985621.494
30
279.000
11
-715146.011
21
-985616.161
31
279.000
0
LINE
8
contour_lines
62
1
10
-715146.011
20
-985616.161
30
279.000
11
-715147.697
21
-985610.876
31
279.000
0
LINE
8
contour_lines
62
1
10
-715147.697
20
-985610.876
30
279.000
11
-715151.153
21
-985606.525
31
279.000
0
LINE
8
contour_lines
62
1
10
-715151.153
20
-985606.525
30
279.000
11
-715154.692
21
-985602.069
31
279.000
0
LINE
8
contour_lines
62
1
10
-715154.692
20
-985602.069
30
279.000
11
-715158.386
21
-985597.559
31
279.000
0
LINE
8
contour_lines
62
1
10
-715158.386
20
-985597.559
30
279.000
11
-715162.605
21
-985593.341
31
279.000
0
LINE
8
contour_lines
62
1
10
-715162.605
20
-985593.341
30
279.000
11
-715167.473
21
-985590.333
31
279.000
0
LINE
8
contour_lines
62
1
10
-715167.473
20
-985590.333
30
279.000
11
-715173.100
21
-985587.653
31
279.000
0
LINE
8
contour_lines
62
1
10
-715173.100
20
-985587.653
30
279.000
11
-715178.441
21
-985585.563
31
279.000
0
LINE
8
contour_lines
62
1
10
-715178.441
20
-985585.563
30
279.000
11
-715183.987
21
-985583.652
31
279.000
0
LINE
8
contour_lines
62
1
10
-715183.987
20
-985583.652
30
279.000
11
-715189.130
21
-985582.024
31
279.000
0
LINE
8
contour_lines
62
1
10
-715189.130
20
-985582.024
30
279.000
11
-715194.744
21
-985581.550
31
279.000
0
LINE
8
contour_lines
62
1
10
-715194.744
20
-985581.550
30
279.000
11
-715200.050
21
-985581.682
31
279.000
0
LINE
8
contour_lines
62
1
10
-715200.050
20
-985581.682
30
279.000
11
-715205.143
21
-985582.422
31
279.000
0
LINE
8
contour_lines
62
1
10
-715205.143
20
-985582.422
30
279.000
11
-715210.036
21
-985583.483
31
279.000
0
LINE
8
contour_lines
62
1
10
-715210.036
20
-985583.483
30
279.000
11
-715214.467
21
-985584.742
31
279.000
0
LINE
8
contour_lines
62
1
10
-715214.467
20
-985584.742
30
279.000
11
-715218.656
21
-985586.390
31
279.000
0
LINE
8
contour_lines
62
1
10
-715218.656
20
-985586.390
30
279.000
11
-715222.030
21
-985589.346
31
279.000
0
LINE
8
contour_lines
62
1
10
-715222.030
20
-985589.346
30
279.000
11
-715223.323
21
-985593.387
31
279.000
0
LINE
8
contour_lines
62
1
10
-715223.323
20
-985593.387
30
279.000
11
-715224.892
21
-985597.288
31
279.000
0
LINE
8
contour_lines
62
1
10
-715224.892
20
-985597.288
30
279.000
11
-715227.110
21
-985600.823
31
279.000
0
LINE
8
contour_lines
62
1
10
-715227.110
20
-985600.823
30
279.000
11
-715230.289
21
-985603.244
31
279.000
0
LINE
8
contour_lines
62
1
10
-715230.289
20
-985603.244
30
279.000
11
-715233.845
21
-985604.418
31
279.000
0
LINE
8
contour_lines
62
1
10
-715233.845
20
-985604.418
30
279.000
11
-715237.383
21
-985605.041
31
279.000
0
LINE
8
contour_lines
62
1
10
-715237.383
20
-985605.041
30
279.000
11
-715240.950
21
-985604.952
31
279.000
0
LINE
8
contour_lines
62
1
10
-715240.950
20
-985604.952
30
279.000
11
-715244.020
21
-985603.365
31
279.000
0
LINE
8
contour_lines
62
1
10
-715244.020
20
-985603.365
30
279.000
11
-715246.270
21
-985600.963
31
279.000
0
LINE
8
contour_lines
62
1
10
-715246.270
20
-985600.963
30
279.000
11
-715247.970
21
-985598.557
31
279.000
0
LINE
8
contour_lines
62
1
10
-715247.970
20
-985598.557
30
279.000
11
-715249.451
21
-985595.801
31
279.000
0
LINE
8
contour_lines
62
1
10
-715249.451
20
-985595.801
30
279.000
11
-715251.193
21
-985593.546
31
279.000
0
LINE
8
contour_lines
62
1
10
-715251.193
20
-985593.546
30
279.000
11
-715253.427
21
-985591.700
31
279.000
0
LINE
8
contour_lines
62
1
10
-715253.427
20
-985591.700
30
279.000
11
-715255.775
21
-985589.704
31
279.000
0
LINE
8
contour_lines
62
1
10
-715255.775
20
-985589.704
30
279.000
11
-715257.866
21
-985587.747
31
279.000
0
LINE
8
contour_lines
62
1
10
-715257.866
20
-985587.747
30
279.000
11
-715259.814
21
-985585.098
31
279.000
0
LINE
8
contour_lines
62
1
10
-715259.814
20
-985585.098
30
279.000
11
-715261.547
21
-985582.316
31
279.000
0
LINE
8
contour_lines
62
1
10
-715261.547
20
-985582.316
30
279.000
11
-715263.115
21
-985579.637
31
279.000
0
LINE
8
contour_lines
62
1
10
-715263.115
20
-985579.637
30
279.000
11
-715266.623
21
-985578.801
31
279.000
0
LINE
8
contour_lines
62
1
10
-715266.623
20
-985578.801
30
279.000
11
-715270.068
21
-985578.003
31
279.000
0
LINE
8
contour_lines
62
1
10
-715270.068
20
-985578.003
30
279.000
11
-715273.818
21
-985576.805
31
279.000
0
LINE
8
contour_lines
62
1
10
-715273.818
20
-985576.805
30
279.000
11
-715277.359
21
-985575.368
31
279.000
0
LINE
8
contour_lines
62
1
10
-715277.359
20
-985575.368
30
279.000
11
-715280.971
21
-985573.377
31
279.000
0
LINE
8
contour_lines
62
1
10
-715280.971
20
-985573.377
30
279.000
11
-715284.675
21
-985571.718
31
279.000
0
LINE
8
contour_lines
62
1
10
-715284.675
20
-985571.718
30
279.000
11
-715288.642
21
-985569.598
31
279.000
0
LINE
8
contour_lines
62
1
10
-715288.642
20
-985569.598
30
279.000
11
-715292.726
21
-985567.355
31
279.000
0
LINE
8
contour_lines
62
1
10
-715292.726
20
-985567.355
30
279.000
11
-715297.037
21
-985564.284
31
279.000
0
LINE
8
contour_lines
62
1
10
-715297.037
20
-985564.284
30
279.000
11
-715301.472
21
-985560.763
31
279.000
0
LINE
8
contour_lines
62
1
10
-715301.472
20
-985560.763
30
279.000
11
-715305.451
21
-985556.957
31
279.000
0
LINE
8
contour_lines
62
1
10
-715305.451
20
-985556.957
30
279.000
11
-715309.976
21
-985552.994
31
279.000
0
LINE
8
contour_lines
62
1
10
-715309.976
20
-985552.994
30
279.000
11
-715314.422
21
-985549.128
31
279.000
0
LINE
8
contour_lines
62
1
10
-715314.422
20
-985549.128
30
279.000
11
-715318.349
21
-985544.873
31
279.000
0
LINE
8
contour_lines
62
1
10
-715318.349
20
-985544.873
30
279.000
11
-715321.188
21
-985539.480
31
279.000
0
LINE
8
contour_lines
62
1
10
-715321.188
20
-985539.480
30
279.000
11
-715317.741
21
-985535.002
31
279.000
0
LINE
8
contour_lines
62
1
10
-715317.741
20
-985535.002
30
279.000
11
-715313.306
21
-985531.361
31
279.000
0
LINE
8
contour_lines
62
1
10
-715313.306
20
-985531.361
30
279.000
11
-715308.018
21
-985528.582
31
279.000
0
LINE
8
contour_lines
62
1
10
-715308.018
20
-985528.582
30
279.000
11
-715302.770
21
-985526.067
31
279.000
0
LINE
8
contour_lines
62
1
10
-715302.770
20
-985526.067
30
279.000
11
-715297.339
21
-985523.292
31
279.000
0
LINE
8
contour_lines
62
1
10
-715297.339
20
-985523.292
30
279.000
11
-715291.786
21
-985520.907
31
279.000
0
LINE
8
contour_lines
62
1
10
-715291.786
20
-985520.907
30
279.000
11
-715285.707
21
-985519.157
31
279.000
0
LINE
8
contour_lines
62
1
10
-715285.707
20
-985519.157
30
279.000
11
-715279.401
21
-985518.490
31
279.000
0
LINE
8
contour_lines
62
1
10
-715279.401
20
-985518.490
30
279.000
11
-715273.022
21
-985517.749
31
279.000
0
LINE
8
contour_lines
62
1
10
-715273.022
20
-985517.749
30
279.000
11
-715266.577
21
-985517.279
31
279.000
0
LINE
8
contour_lines
62
1
10
-715266.577
20
-985517.279
30
279.000
11
-715259.843
21
-985518.052
31
279.000
0
LINE
8
contour_lines
62
1
10
-715259.843
20
-985518.052
30
279.000
11
-715253.604
21
-985519.244
31
279.000
0
LINE
8
contour_lines
62
1
10
-715253.604
20
-985519.244
30
279.000
11
-715247.187
21
-985521.040
31
279.000
0
LINE
8
contour_lines
62
1
10
-715247.187
20
-985521.040
30
279.000
11
-715240.993
21
-985522.290
31
279.000
0
LINE
8
contour_lines
62
1
10
-715240.993
20
-985522.290
30
279.000
11
-715234.826
21
-985522.466
31
279.000
0
LINE
8
contour_lines
62
1
10
-715234.826
20
-985522.466
30
279.000
11
-715228.789
21
-985521.672
31
279.000
0
LINE
8
contour_lines
62
1
10
-715228.789
20
-985521.672
30
279.000
11
-715223.241
21
-985519.383
31
279.000
0
LINE
8
contour_lines
62
1
10
-715223.241
20
-985519.383
30
279.000
11
-715217.789
21
-985517.100
31
279.000
0
LINE
8
contour_lines
62
1
10
-715217.789
20
-985517.100
30
279.000
11
-715212.203
21
-985516.033
31
279.000
0
LINE
8
contour_lines
62
1
10
-715212.203
20
-985516.033
30
279.000
11
-715206.819
21
-985516.408
31
279.000
0
LINE
8
contour_lines
62
1
10
-715206.819
20
-985516.408
30
279.000
11
-715201.302
21
-985516.163
31
279.000
0
LINE
8
contour_lines
62
1
10
-715201.302
20
-985516.163
30
279.000
11
-715196.771
21
-985513.584
31
279.000
0
LINE
8
contour_lines
62
1
10
-715196.771
20
-985513.584
30
279.000
11
-715191.979
21
-985511.217
31
279.000
0
LINE
8
contour_lines
62
1
10
-715191.979
20
-985511.217
30
279.000
11
-715186.872
21
-985509.458
31
279.000
0
LINE
8
contour_lines
62
1
10
-715186.872
20
-985509.458
30
279.000
11
-715181.784
21
-985507.698
31
279.000
0
LINE
8
contour_lines
62
1
10
-715181.784
20
-985507.698
30
279.000
11
-715177.149
21
-985506.156
31
279.000
0
LINE
8
contour_lines
62
1
10
-715177.149
20
-985506.156
30
279.000
11
-715172.396
21
-985504.781
31
279.000
0
LINE
8
contour_lines
62
1
10
-715172.396
20
-985504.781
30
279.000
11
-715168.041
21
-985503.668
31
279.000
0
LINE
8
contour_lines
62
1
10
-715168.041
20
-985503.668
30
279.000
11
-715163.155
21
-985502.984
31
279.000
0
LINE
8
contour_lines
62
1
10
-715163.155
20
-985502.984
30
279.000
11
-715158.835
21
-985501.960
31
279.000
0
LINE
8
contour_lines
62
1
10
-715158.835
20
-985501.960
30
279.000
11
-715154.581
21
-985500.675
31
279.000
0
LINE
8
contour_lines
62
1
10
-715154.581
20
-985500.675
30
279.000
11
-715150.766
21
-985499.533
31
279.000
0
LINE
8
contour_lines
62
1
10
-715150.766
20
-985499.533
30
279.000
11
-715146.758
21
-985498.779
31
279.000
0
LINE
8
contour_lines
62
1
10
-715146.758
20
-985498.779
30
279.000
11
-715143.143
21
-985498.701
31
279.000
0
LINE
8
contour_lines
62
1
10
-715143.143
20
-985498.701
30
279.000
11
-715139.473
21
-985499.898
31
279.000
0
LINE
8
contour_lines
62
1
10
-715139.473
20
-985499.898
30
279.000
11
-715135.773
21
-985500.998
31
279.000
0
LINE
8
contour_lines
62
1
10
-715135.773
20
-985500.998
30
279.000
11
-715132.434
21
-985501.800
31
279.000
0
LINE
8
contour_lines
62
1
10
-715132.434
20
-985501.800
30
279.000
11
-715129.007
21
-985502.738
31
279.000
0
LINE
8
contour_lines
62
1
10
-715129.007
20
-985502.738
30
279.000
11
-715126.039
21
-985503.754
31
279.000
0
LINE
8
contour_lines
62
1
10
-715126.039
20
-985503.754
30
279.000
11
-715122.648
21
-985504.098
31
279.000
0
LINE
8
contour_lines
62
1
10
-715122.648
20
-985504.098
30
279.000
11
-715119.492
21
-985503.824
31
279.000
0
LINE
8
contour_lines
62
1
10
-715119.492
20
-985503.824
30
279.000
11
-715116.111
21
-985503.806
31
279.000
0
LINE
8
contour_lines
62
1
10
-715116.111
20
-985503.806
30
279.000
11
-715112.724
21
-985503.838
31
279.000
0
LINE
8
contour_lines
62
1
10
-715112.724
20
-985503.838
30
279.000
11
-715105.778
21
-985503.778
31
279.000
0
LINE
8
contour_lines
62
1
10
-715105.778
20
-985503.778
30
279.000
11
-715098.944
21
-985504.097
31
279.000
0
LINE
8
contour_lines
62
1
10
-715098.944
20
-985504.097
30
279.000
11
-715091.849
21
-985504.107
31
279.000
0
LINE
8
contour_lines
62
1
10
-715091.849
20
-985504.107
30
279.000
11
-715084.648
21
-985505.599
31
279.000
0
LINE
8
contour_lines
62
1
10
-715084.648
20
-985505.599
30
279.000
11
-715077.595
21
-985508.390
31
279.000
0
LINE
8
contour_lines
62
1
10
-715077.595
20
-985508.390
30
279.000
11
-715070.628
21
-985511.548
31
279.000
0
LINE
8
contour_lines
62
1
10
-715070.628
20
-985511.548
30
279.000
11
-715063.215
21
-985514.436
31
279.000
0
LINE
8
contour_lines
62
1
10
-715063.215
20
-985514.436
30
279.000
11
-715055.557
21
-985516.277
31
279.000
0
LINE
8
contour_lines
62
1
10
-715055.557
20
-985516.277
30
279.000
11
-715047.621
21
-985518.093
31
279.000
0
LINE
8
contour_lines
62
1
10
-715047.621
20
-985518.093
30
279.000
11
-715040.359
21
-985521.693
31
279.000
0
LINE
8
contour_lines
62
1
10
-715040.359
20
-985521.693
30
279.000
11
-715032.598
21
-985525.150
31
279.000
0
LINE
8
contour_lines
62
1
10
-715032.598
20
-985525.150
30
279.000
11
-715024.634
21
-985527.695
31
279.000
0
LINE
8
contour_lines
62
1
10
-715024.634
20
-985527.695
30
279.000
11
-715016.411
21
-985530.160
31
279.000
0
LINE
8
contour_lines
62
1
10
-715016.411
20
-985530.160
30
279.000
11
-715008.180
21
-985532.481
31
279.000
0
LINE
8
contour_lines
62
1
10
-715008.180
20
-985532.481
30
279.000
11
-714999.343
21
-985531.350
31
279.000
0
ENDSEC
0
EOF
